<svg xmlns="http://www.w3.org/2000/svg" viewBox="0 0 24 24" fill="none">
  <defs>
    <linearGradient id="sparkleGradient" x1="0%" y1="0%" x2="100%" y2="100%">
      <stop offset="0%" stop-color="#6366f1" stop-opacity="1" />
      <stop offset="50%" stop-color="#8b5cf6" stop-opacity="1" />
      <stop offset="100%" stop-color="#ec4899" stop-opacity="1" />
    </linearGradient>
  </defs>
  <rect width="24" height="24" rx="4" fill="url(#sparkleGradient)"/>
  <path d="m12 6-1.912 5.813a2 2 0 0 1-1.275 1.275L3 12l5.813 1.912a2 2 0 0 1 1.275 1.275L12 21l1.912-5.813a2 2 0 0 1 1.275-1.275L21 12l-5.813-1.912a2 2 0 0 1-1.275-1.275L12 6Z" fill="white" opacity="0.95"/>
  <circle cx="6" cy="6" r="1.2" fill="#fbbf24"/>
  <circle cx="18" cy="6" r="1.2" fill="#fbbf24"/>
  <circle cx="6" cy="18" r="1.2" fill="#fbbf24"/>
  <circle cx="18" cy="18" r="1.2" fill="#fbbf24"/>
</svg>

